<svg width="24" height="24" viewBox="0 0 24 24" fill="none" xmlns="http://www.w3.org/2000/svg">
<path fill-rule="evenodd" clip-rule="evenodd" d="M7.79279 19.707C7.60532 19.5195 7.5 19.2652 7.5 19C7.5 18.7348 7.60532 18.4805 7.79279 18.293L14.0858 12L7.79279 5.707C7.61063 5.51839 7.50983 5.26579 7.51211 5.00359C7.51439 4.7414 7.61956 4.49058 7.80497 4.30518C7.99038 4.11977 8.24119 4.0146 8.50339 4.01232C8.76558 4.01004 9.01818 4.11084 9.20679 4.293L15.4998 10.586C15.8747 10.9611 16.0854 11.4697 16.0854 12C16.0854 12.5303 15.8747 13.0389 15.4998 13.414L9.20679 19.707C9.01926 19.8945 8.76495 19.9998 8.49979 19.9998C8.23462 19.9998 7.98031 19.8945 7.79279 19.707Z" fill="white"/>
</svg>
