<svg width="24" height="24" viewBox="0 0 24 24" fill="none" xmlns="http://www.w3.org/2000/svg">
<path fill-rule="evenodd" clip-rule="evenodd" d="M16.2071 4.293C16.3946 4.48053 16.4999 4.73484 16.4999 5C16.4999 5.26516 16.3946 5.51947 16.2071 5.707L9.91412 12L16.2071 18.293C16.3893 18.4816 16.4901 18.7342 16.4878 18.9964C16.4855 19.2586 16.3804 19.5094 16.1949 19.6948C16.0095 19.8802 15.7587 19.9854 15.4965 19.9877C15.2343 19.99 14.9817 19.8892 14.7931 19.707L8.50012 13.414C8.12518 13.0389 7.91455 12.5303 7.91455 12C7.91455 11.4697 8.12518 10.9611 8.50012 10.586L14.7931 4.293C14.9807 4.10553 15.235 4.00021 15.5001 4.00021C15.7653 4.00021 16.0196 4.10553 16.2071 4.293Z" fill="white"/>
</svg>
