<svg width="20" height="21" viewBox="0 0 20 21" fill="none" xmlns="http://www.w3.org/2000/svg">
<mask id="mask0_12_123" style="mask-type:alpha" maskUnits="userSpaceOnUse" x="0" y="0" width="20" height="21">
<rect y="0.399414" width="20" height="20" fill="#D9D9D9"/>
</mask>
<g mask="url(#mask0_12_123)">
<path d="M9.98391 17.4827C8.30877 17.4827 6.83231 16.9715 5.55454 15.949C4.27676 14.9266 3.4578 13.6184 3.09766 12.0244C3.0528 11.8588 3.07981 11.7066 3.1787 11.5677C3.27745 11.4288 3.41738 11.3481 3.59849 11.3256C3.76891 11.3033 3.92169 11.3369 4.05683 11.4267C4.19197 11.5164 4.28627 11.6483 4.33974 11.8225C4.65697 13.1099 5.34044 14.1667 6.39016 14.9931C7.43988 15.8195 8.6378 16.2327 9.98391 16.2327C11.6089 16.2327 12.9874 15.6667 14.1193 14.5348C15.2513 13.4028 15.8172 12.0244 15.8172 10.3994C15.8172 8.77437 15.2513 7.3959 14.1193 6.26396C12.9874 5.13201 11.6089 4.56604 9.98391 4.56604C9.07363 4.56604 8.22058 4.76826 7.42474 5.17271C6.62877 5.57701 5.94335 6.13333 5.36849 6.84166H6.92308C7.10016 6.84166 7.24856 6.9016 7.36829 7.02146C7.48815 7.14132 7.54808 7.28979 7.54808 7.46687C7.54808 7.6441 7.48815 7.7925 7.36829 7.91208C7.24856 8.0318 7.10016 8.09166 6.92308 8.09166H4.07058C3.8571 8.09166 3.67822 8.01944 3.53391 7.875C3.38947 7.73069 3.31724 7.5518 3.31724 7.33833V4.48583C3.31724 4.30875 3.37717 4.16035 3.49704 4.04062C3.6169 3.92076 3.76544 3.86083 3.94266 3.86083C4.11974 3.86083 4.26815 3.92076 4.38787 4.04062C4.50745 4.16035 4.56724 4.30875 4.56724 4.48583V5.83521C5.24349 5.03715 6.05335 4.41778 6.99683 3.97708C7.94016 3.53639 8.93585 3.31604 9.98391 3.31604C10.9672 3.31604 11.8883 3.50194 12.747 3.87375C13.6058 4.24555 14.3546 4.7509 14.9935 5.38979C15.6324 6.02868 16.1377 6.77743 16.5095 7.63604C16.8813 8.49479 17.0672 9.41576 17.0672 10.399C17.0672 11.3822 16.8813 12.3032 16.5095 13.1621C16.1377 14.0211 15.6324 14.7701 14.9935 15.409C14.3546 16.0478 13.6058 16.5532 12.747 16.925C11.8883 17.2968 10.9672 17.4827 9.98391 17.4827ZM10.6329 10.1462L12.9245 12.4379C13.04 12.5532 13.099 12.6982 13.1016 12.8729C13.1044 13.0476 13.0454 13.1953 12.9245 13.316C12.8038 13.4367 12.6575 13.4971 12.4856 13.4971C12.3135 13.4971 12.1671 13.4367 12.0464 13.316L9.60891 10.8785C9.53099 10.8005 9.47384 10.7155 9.43745 10.6235C9.4012 10.5316 9.38308 10.4366 9.38308 10.3385V6.85771C9.38308 6.68062 9.44294 6.53215 9.56266 6.41229C9.68252 6.29257 9.83106 6.23271 10.0083 6.23271C10.1854 6.23271 10.3338 6.29257 10.4535 6.41229C10.5731 6.53215 10.6329 6.68062 10.6329 6.85771V10.1462Z" fill="#906447"/>
</g>
</svg>
