<svg width="49" height="49" viewBox="0 0 49 49" fill="none" xmlns="http://www.w3.org/2000/svg">
<path d="M31.9107 15.6662C29.2098 15.6662 26.6652 16.5032 24.5 18.0769C23.1496 17.0947 21.654 16.4028 20.058 16.0121L23.4397 12.1394C23.4621 12.117 23.4732 12.0947 23.4955 12.0612C23.4955 12.0612 23.4955 12.0612 23.4955 12.0501C23.5067 12.0278 23.529 11.9943 23.5402 11.972C23.5402 11.972 23.5402 11.972 23.5402 11.9608C23.5402 11.9273 23.5625 11.905 23.5625 11.8715C23.5625 11.838 23.5625 11.8157 23.5625 11.7822C23.5625 11.7822 23.5625 11.7822 23.5625 11.7711C23.5625 11.7376 23.5625 11.7153 23.5625 11.6929C23.5625 11.6929 23.5625 11.6929 23.5625 11.6818C23.5625 11.6483 23.5513 11.626 23.5402 11.5925C23.5402 11.559 23.5179 11.5367 23.5067 11.5032C23.4955 11.4697 23.4732 11.4474 23.4509 11.4251L20.8393 8.16616C20.7277 8.03223 20.5603 7.9541 20.3817 7.9541H13.7857C13.6071 7.9541 13.4397 8.03223 13.3281 8.16616L10.7165 11.3804C10.6942 11.4028 10.6719 11.4362 10.6607 11.4586C10.6496 11.4809 10.6384 11.5144 10.6272 11.5479C10.6272 11.5813 10.6161 11.6037 10.6049 11.6371C10.6049 11.6371 10.6049 11.6371 10.6049 11.6483C10.6049 11.6706 10.6049 11.7041 10.6049 11.7264C10.6049 11.7264 10.6049 11.7264 10.6049 11.7376C10.6049 11.7711 10.6049 11.7934 10.6049 11.8269C10.6049 11.8604 10.6161 11.8827 10.6272 11.9162C10.6272 11.9162 10.6272 11.9162 10.6272 11.9273C10.6272 11.9608 10.6496 11.9831 10.6719 12.0054C10.6719 12.0054 10.6719 12.0054 10.6719 12.0166C10.683 12.0389 10.7054 12.0724 10.7277 12.0947L14.1094 15.9787C8.60714 17.3626 4.5 22.3403 4.5 28.2554C4.5 35.1974 10.1473 40.8447 17.0893 40.8447C19.7902 40.8447 22.3348 40.0077 24.5 38.434C26.6652 40.0188 29.2098 40.8447 31.9107 40.8447C38.8527 40.8447 44.5 35.1974 44.5 28.2554C44.5 21.3135 38.8527 15.6662 31.9107 15.6662ZM20.1027 9.12598L21.7656 11.1684H19.8571L19.1987 9.12598H20.1027ZM19.846 12.3403H21.7098L18.7188 15.7666C18.7188 15.7666 18.6853 15.7666 18.6629 15.7666L19.846 12.3403ZM16.2076 9.12598H17.9598L18.6183 11.1684H15.5491L16.2076 9.12598ZM18.6071 12.3403L17.4576 15.6662C17.3348 15.6662 17.2121 15.6662 17.0893 15.6662C17.0112 15.6662 16.933 15.6662 16.8549 15.6662C16.8103 15.6662 16.7656 15.6662 16.721 15.6662L15.5714 12.3403H18.6071ZM14.0759 9.12598H14.9799L14.3214 11.1684H12.4129L14.0759 9.12598ZM12.4688 12.3403H14.3326L15.5156 15.7666C15.5156 15.7666 15.4821 15.7666 15.4598 15.7666L12.4688 12.3403ZM17.0893 39.6729C10.7946 39.6729 5.67188 34.5501 5.67188 28.2554C5.67188 22.5635 9.85714 17.8313 15.3259 16.972C15.4598 16.9496 15.5938 16.9273 15.7388 16.9162C15.7612 16.9162 15.7723 16.9162 15.7946 16.9162C15.9844 16.8938 16.1629 16.8827 16.3527 16.8715C16.4866 16.8715 16.6094 16.8604 16.7321 16.8492C16.8549 16.8492 16.9777 16.8492 17.0893 16.8492C17.3348 16.8492 17.5692 16.8604 17.8259 16.8827C17.8371 16.8827 17.8482 16.8827 17.8594 16.8827C17.8594 16.8827 17.8817 16.8827 17.8929 16.8827C18.2054 16.905 18.529 16.9385 18.8527 16.9943C18.8862 16.9943 18.9085 16.9943 18.942 16.9943C20.8281 17.2956 22.5915 18.0769 24.1317 19.2822C24.2879 19.405 24.4442 19.5389 24.6004 19.6729C24.7455 19.8068 24.8906 19.9295 25.0357 20.0746C25.1138 20.1528 25.192 20.2197 25.2589 20.2979C25.471 20.5099 25.6719 20.7443 25.8616 20.9675C27.558 23.0099 28.4955 25.5992 28.4955 28.2666C28.4955 30.7331 27.692 33.1438 26.2076 35.1193C26.1295 35.0523 26.0513 34.9854 25.9621 34.9072C25.9509 34.8961 25.9286 34.8849 25.9174 34.8626C25.8504 34.8068 25.7946 34.751 25.7277 34.684C25.7054 34.6617 25.6719 34.6282 25.6496 34.6059C25.6049 34.5612 25.5491 34.5054 25.5045 34.4608C25.471 34.4273 25.4487 34.405 25.4152 34.3715C25.3705 34.3269 25.3259 34.2711 25.2813 34.2264C25.2701 34.2153 25.2589 34.1929 25.2366 34.1818C26.1853 32.876 26.8103 31.3581 27.0446 29.7621C27.0893 29.4385 26.8661 29.1371 26.5536 29.0925C26.2299 29.0479 25.9286 29.2711 25.8839 29.5836C25.6942 30.8782 25.2143 32.1171 24.4888 33.1996C23.5067 31.7376 22.9933 30.0412 22.9933 28.2554C22.9933 26.4697 23.5067 24.7733 24.4888 23.3112C25.2924 24.5166 25.7946 25.8894 25.9397 27.3291C25.9732 27.6304 26.2299 27.8537 26.5201 27.8537C26.5424 27.8537 26.5647 27.8537 26.5759 27.8537C26.8996 27.8202 27.1339 27.53 27.1004 27.2063C26.8996 25.2755 26.1518 23.4563 24.9464 21.9496C24.4554 21.3358 23.8973 20.7889 23.2835 20.309C23.1942 20.242 23.1049 20.1751 23.0156 20.1081C21.2857 18.8358 19.2321 18.1662 17.0781 18.1662C14.6563 18.1662 12.3125 19.0367 10.471 20.6327C10.2254 20.8447 10.2031 21.213 10.4152 21.4586C10.6272 21.7041 10.9955 21.7264 11.2411 21.5144C12.8594 20.1081 14.9353 19.338 17.0781 19.338C18.7746 19.338 20.404 19.8068 21.8214 20.7108C20.2031 22.876 19.3103 25.5322 19.3103 28.2554C19.3103 30.9787 20.192 33.6237 21.8214 35.8001C20.404 36.6929 18.7746 37.1729 17.0781 37.1729C12.1674 37.1729 8.17188 33.1773 8.17188 28.2666C8.17188 26.4362 8.71875 24.684 9.7567 23.1885C9.94643 22.9206 9.87946 22.5523 9.61161 22.3737C9.34375 22.184 8.97545 22.251 8.79688 22.5188C7.625 24.2153 7 26.2019 7 28.2666C7 33.8246 11.5201 38.3447 17.0781 38.3447C19.0536 38.3447 20.9397 37.7867 22.5804 36.7153C22.5915 36.7264 22.6138 36.7487 22.625 36.7599C22.6585 36.8045 22.7031 36.8492 22.7366 36.8827C22.7701 36.9273 22.8147 36.9608 22.8482 37.0054C22.8929 37.0501 22.9263 37.0836 22.971 37.1282C23.0045 37.1617 23.0491 37.2063 23.0826 37.2398C23.1272 37.2845 23.1607 37.3179 23.2054 37.3626C23.25 37.3961 23.2835 37.4407 23.3281 37.4742C23.3728 37.5188 23.4174 37.5523 23.4509 37.5858C23.4844 37.6081 23.5067 37.6416 23.5402 37.6639C21.6317 38.9809 19.4219 39.6729 17.0781 39.6729H17.0893ZM31.9107 39.6729C29.3214 39.6729 26.8884 38.8358 24.8571 37.2398C24.221 36.7487 23.6406 36.1795 23.1272 35.5545C21.4308 33.5121 20.4933 30.9229 20.4933 28.2554C20.4933 25.7889 21.2969 23.3782 22.7812 21.4028C22.8594 21.4697 22.9375 21.5367 23.0268 21.6148C23.0379 21.626 23.0603 21.6483 23.0714 21.6595C23.1384 21.7153 23.1942 21.7711 23.2612 21.838C23.2835 21.8604 23.317 21.8938 23.3393 21.9162C23.3839 21.9608 23.4397 22.0166 23.4844 22.0612C23.5179 22.0947 23.5402 22.117 23.5737 22.1505C23.6183 22.1952 23.6629 22.2398 23.7076 22.2956C23.7188 22.3068 23.7299 22.3291 23.7522 22.3403C22.5134 24.0479 21.8326 26.1349 21.8326 28.2554C21.8326 30.5434 22.6138 32.7755 24.0424 34.5612C24.6004 35.2532 25.2478 35.8782 25.9732 36.4028C27.7031 37.6751 29.7567 38.3447 31.9107 38.3447C34.5446 38.3447 37.0446 37.3291 38.9308 35.4987C39.1652 35.2755 39.1652 34.8961 38.942 34.6729C38.7188 34.4385 38.3393 34.4385 38.1161 34.6617C36.442 36.28 34.2433 37.1729 31.9107 37.1729C30.2143 37.1729 28.5848 36.7041 27.1674 35.8001C28.7857 33.6349 29.6786 30.9787 29.6786 28.2554C29.6786 25.5322 28.7969 22.8871 27.1674 20.7108C28.5848 19.8179 30.2143 19.338 31.9107 19.338C36.8214 19.338 40.817 23.3336 40.817 28.2443C40.817 29.8961 40.3594 31.5144 39.5 32.9095C39.3326 33.1885 39.4107 33.5456 39.6897 33.713C39.9688 33.8804 40.3259 33.8023 40.4933 33.5233C41.4754 31.9385 41.9888 30.1081 41.9888 28.2443C41.9888 22.6862 37.4688 18.1662 31.9107 18.1662C29.9353 18.1662 28.0491 18.7242 26.4085 19.7956C26.3973 19.7845 26.375 19.7621 26.3638 19.751C26.3192 19.7063 26.2857 19.6617 26.2411 19.617C26.2076 19.5836 26.1629 19.5389 26.1295 19.5054C26.0848 19.4608 26.0513 19.4162 26.0067 19.3827C25.9732 19.3492 25.9286 19.3045 25.8951 19.2711C25.8504 19.2264 25.8058 19.1929 25.7723 19.1483C25.7388 19.1148 25.6942 19.0702 25.6607 19.0367C25.6161 18.992 25.5714 18.9586 25.5268 18.9139C25.5045 18.8916 25.471 18.8693 25.4487 18.8358C27.3571 17.5188 29.567 16.8269 31.9107 16.8269C38.2054 16.8269 43.3281 21.9496 43.3281 28.2443C43.3281 34.5389 38.2054 39.6617 31.9107 39.6617V39.6729Z" fill="#906447"/>
</svg>
