<svg width="49" height="49" viewBox="0 0 49 49" fill="none" xmlns="http://www.w3.org/2000/svg">
<path d="M44.3731 38.8613L44.1699 38.5311C43.5223 37.4772 42.1255 37.1343 41.0588 37.7946L40.3985 38.201L37.1604 32.9565C37.5414 32.6264 37.8461 32.1946 38.0493 31.7121C38.9636 29.5026 38.9128 27.0137 37.9223 24.8677C36.9192 22.7089 35.7001 20.6137 34.316 18.6581C34.1255 18.3915 33.7699 18.328 33.5033 18.5184C33.2366 18.7089 33.1731 19.0645 33.3636 19.3311C34.7096 21.2232 35.8906 23.255 36.8684 25.3502C36.8684 25.3629 36.8684 25.3756 36.8811 25.3883C35.5985 26.0867 34.1128 26.3153 32.6779 26.0232H32.6652C32.3604 25.9597 32.043 25.9216 31.7128 25.8962C31.3953 25.8708 31.116 26.1121 31.0906 26.4423C31.0652 26.7724 31.3065 27.0391 31.6366 27.0645C31.9033 27.0772 32.1826 27.1153 32.4366 27.1661H32.4493C32.9319 27.2676 33.4144 27.3057 33.8969 27.3057C35.0779 27.3057 36.2334 27.0264 37.2874 26.493C37.7065 28.0549 37.6176 29.7311 36.9826 31.2549C36.6144 32.1438 35.7128 32.7026 34.7477 32.6264C32.6906 32.474 30.7858 31.4708 29.516 29.8708C28.9953 29.2105 28.4874 28.5248 28.0176 27.8391L28.9065 27.4835C28.9826 27.4581 29.0588 27.4327 29.135 27.3946C29.4398 27.293 29.6049 26.9629 29.4906 26.6581C29.389 26.3534 29.0588 26.1883 28.7541 26.3026C28.6525 26.3407 28.5636 26.3661 28.4747 26.4042L27.3445 26.8486C25.8461 24.5121 24.589 22.0105 23.5985 19.3565L30.1128 15.3438C30.7096 15.9915 31.2938 16.6645 31.8652 17.3756C32.0684 17.6296 32.4366 17.6676 32.6779 17.4645C32.9319 17.2613 32.9699 16.893 32.7668 16.6518C32.1826 15.928 31.5731 15.2296 30.9509 14.5565C30.5826 14.1502 29.9731 14.074 29.5033 14.3534L22.9636 18.3915C22.4938 18.6835 22.3033 19.255 22.4938 19.7756C23.9795 23.7375 26.0239 27.3819 28.589 30.62C30.062 32.474 32.2588 33.6423 34.6461 33.8073C34.735 33.8073 34.8112 33.8073 34.9001 33.8073C35.3445 33.8073 35.7636 33.7184 36.1572 33.5661L39.3953 38.8105L38.735 39.2169C38.2271 39.5343 37.8588 40.0296 37.7192 40.6137C37.5795 41.1978 37.6811 41.8073 37.9985 42.3153L38.2017 42.6454C38.3414 42.8613 38.5445 43.0137 38.7985 43.0772C38.8747 43.0899 38.9509 43.1026 39.0271 43.1026C39.2049 43.1026 39.3826 43.0518 39.535 42.9629L44.043 40.1819C44.5001 39.9026 44.6398 39.3057 44.3604 38.8613H44.3731ZM39.1033 41.8708L39.0017 41.7057C38.8493 41.4518 38.7985 41.1597 38.8747 40.8803C38.9382 40.601 39.116 40.3597 39.3699 40.2073L41.6811 38.7851C42.189 38.4676 42.8747 38.6327 43.1922 39.1407L43.2938 39.3057L39.116 41.8835L39.1033 41.8708Z" fill="#906447"/>
<path d="M23.4462 24.9311C23.1669 24.7661 22.8113 24.8677 22.6462 25.147C22.3161 25.7311 21.9732 26.2899 21.605 26.8613L20.4748 26.4169C19.1415 25.8962 17.7066 25.7565 16.297 26.0359H16.2843C14.8367 26.328 13.3637 26.0994 12.0685 25.401C12.0685 25.3883 12.0685 25.3756 12.0812 25.3629C13.7701 21.7311 16.0431 18.3661 18.824 15.3565L21.9351 17.274C22.2145 17.4391 22.5701 17.3629 22.7351 17.0835C22.9002 16.8042 22.824 16.4486 22.5447 16.2835L19.4208 14.3534C18.951 14.0613 18.3415 14.1502 17.9732 14.5565C15.1034 17.655 12.7669 21.1343 11.0272 24.8804C10.024 27.0264 9.98593 29.5153 10.9002 31.7248C11.1034 32.2073 11.4082 32.6391 11.7891 32.9692L8.55101 38.2137L7.89069 37.8073C6.83672 37.1597 5.4399 37.4899 4.77958 38.5438L4.6399 38.7724C4.50021 38.9883 4.46212 39.255 4.52561 39.4962C4.5891 39.7502 4.74148 39.9534 4.95736 40.0931L9.46529 42.874C9.61767 42.9756 9.79545 43.0137 9.97323 43.0137C10.2907 43.0137 10.6082 42.8486 10.7986 42.5565L10.9383 42.328C11.2558 41.82 11.3574 41.2105 11.2177 40.6264C11.078 40.0423 10.7224 39.547 10.2018 39.2296L9.54148 38.8232L12.7796 33.5788C13.1732 33.7311 13.605 33.82 14.0367 33.82C14.1256 33.82 14.2018 33.82 14.2907 33.82C15.1161 33.7565 15.9288 33.5788 16.7034 33.2867C17.0082 33.1724 17.1605 32.8423 17.0462 32.5375C16.932 32.2327 16.6018 32.0804 16.297 32.1946C15.624 32.4486 14.9256 32.601 14.2018 32.6518C13.2367 32.728 12.3478 32.1692 11.9669 31.2804C11.332 29.7565 11.2304 28.0804 11.6621 26.5184C13.1478 27.2804 14.8367 27.5216 16.4875 27.1915H16.5002C17.6812 26.9629 18.9002 27.0645 20.0304 27.5089L20.9193 27.8645C20.4367 28.5629 19.9415 29.2359 19.4208 29.8962C19.0907 30.3153 18.697 30.7089 18.278 31.0391C18.024 31.2423 17.9859 31.6105 18.1891 31.8518C18.3034 31.9915 18.4685 32.0677 18.6462 32.0677C18.7732 32.0677 18.9002 32.0296 19.0145 31.9407C19.5097 31.547 19.9542 31.1026 20.3351 30.6073C21.5542 29.0708 22.6589 27.4327 23.6367 25.7311C23.8018 25.4518 23.7002 25.0962 23.4208 24.9311H23.4462ZM10.0875 40.8804C10.151 41.1597 10.1129 41.4645 9.96053 41.7057L9.92244 41.7692L5.74466 39.1915L5.78275 39.128C6.10021 38.62 6.77323 38.455 7.29387 38.7724L9.60498 40.1946C9.85894 40.347 10.024 40.5883 10.1002 40.8677L10.0875 40.8804Z" fill="#906447"/>
<path d="M23.497 9.83274C23.7001 10.1629 24.0557 10.3534 24.4366 10.3534C24.8176 10.3534 25.1732 10.1629 25.3763 9.83274L26.7351 7.6994C26.9128 7.42004 26.9509 7.08988 26.862 6.78512C26.7732 6.48036 26.5446 6.22639 26.2525 6.0867C25.0716 5.56607 23.8652 5.56607 22.6462 6.0867C22.3541 6.21369 22.1255 6.46766 22.0239 6.78512C21.9224 7.10258 21.9732 7.43274 22.1509 7.7121L23.497 9.83274ZM25.7192 7.12797L24.4366 9.14702L23.1668 7.14067C24.043 6.77242 24.8811 6.77242 25.7192 7.14067V7.12797Z" fill="#906447"/>
<path d="M30.4049 12.3216C30.4938 12.3216 30.5827 12.3216 30.6589 12.2835L32.6271 11.7629C32.9065 11.6867 33.1478 11.4962 33.2748 11.2296C33.4017 10.9629 33.4144 10.6581 33.3002 10.3915C32.8811 9.4137 32.1446 8.72799 31.1033 8.35973C30.824 8.25814 30.5192 8.29624 30.2652 8.43592C30.0113 8.5883 29.8335 8.84227 29.7827 9.12164L29.4144 11.1153C29.351 11.4581 29.4652 11.801 29.7192 12.0423C29.9097 12.22 30.151 12.3089 30.4049 12.3089V12.3216ZM30.8875 9.52799C31.4589 9.76926 31.8779 10.1502 32.1446 10.6835L30.5954 11.0899L30.8875 9.52799Z" fill="#906447"/>
<path d="M16.3351 11.7629L18.3034 12.2835C18.3922 12.3089 18.4811 12.3216 18.5573 12.3216C18.8113 12.3216 19.0526 12.2327 19.243 12.055C19.497 11.8137 19.6113 11.4708 19.5478 11.128L19.1795 9.13432C19.1287 8.84226 18.951 8.58829 18.697 8.44861C18.443 8.29622 18.1383 8.27083 17.8589 8.37241C16.8176 8.74067 16.0811 9.41368 15.6621 10.4042C15.5478 10.6708 15.5605 10.9756 15.6875 11.2423C15.8145 11.5089 16.0557 11.6994 16.3351 11.7756V11.7629ZM18.0748 9.52797L18.3668 11.0899L16.8176 10.6835C17.0843 10.1502 17.5034 9.76924 18.0748 9.52797Z" fill="#906447"/>
<path d="M34.3161 13.9851C34.405 14.0359 34.4939 14.0486 34.5828 14.0486C34.7987 14.0486 35.0019 13.9343 35.1034 13.7312L35.5606 12.8423C35.713 12.5629 35.5987 12.2074 35.3066 12.055C35.0273 11.9026 34.6717 12.0169 34.5193 12.3089L34.0622 13.1978C33.9098 13.4772 34.0241 13.8327 34.3161 13.9851Z" fill="#906447"/>
<path d="M34.8241 15.5724C34.6718 15.8518 34.786 16.2073 35.0781 16.3597L35.967 16.8169C36.0559 16.8677 36.1448 16.8804 36.2337 16.8804C36.4495 16.8804 36.6527 16.7661 36.7543 16.5629C36.9067 16.2835 36.7924 15.928 36.5003 15.7756L35.6114 15.3185C35.3321 15.1661 34.9765 15.2804 34.8241 15.5724Z" fill="#906447"/>
<path d="M13.859 13.7311C13.9606 13.9343 14.1638 14.0486 14.3797 14.0486C14.4686 14.0486 14.5575 14.0232 14.6463 13.9851C14.9257 13.8327 15.04 13.4899 14.9003 13.1978L14.4432 12.3089C14.2908 12.0295 13.9479 11.9153 13.6559 12.0549C13.3765 12.2073 13.2622 12.5502 13.4019 12.8422L13.859 13.7311Z" fill="#906447"/>
<path d="M12.7414 16.8931C12.8303 16.8931 12.9192 16.8677 13.008 16.8296L13.8969 16.3724C14.1763 16.22 14.2906 15.8772 14.1509 15.5851C13.9985 15.3058 13.6557 15.1915 13.3636 15.3312L12.4747 15.7883C12.1954 15.9407 12.0811 16.2835 12.2207 16.5756C12.3223 16.7788 12.5255 16.8931 12.7414 16.8931Z" fill="#906447"/>
</svg>
