<svg width="49" height="49" viewBox="0 0 49 49" fill="none" xmlns="http://www.w3.org/2000/svg">
<path d="M26.0538 22.0569C25.6182 22.0569 25.2769 22.41 25.2769 22.8338C25.2769 23.2576 25.63 23.6107 26.0538 23.6107C26.4776 23.6107 26.8307 23.2576 26.8307 22.8338C26.8307 22.41 26.4776 22.0569 26.0538 22.0569Z" fill="#906447"/>
<path d="M42.1456 36.1122C42.1456 27.46 35.3769 20.35 27.0779 19.1257C27.4193 18.6313 27.6194 18.0192 27.6194 17.3717C27.6194 15.6531 26.2186 14.2523 24.4999 14.2523C22.7813 14.2523 21.3805 15.6531 21.3805 17.3717C21.3805 18.0192 21.5806 18.6195 21.922 19.1257C13.6583 20.35 6.85427 27.4247 6.85427 36.1122C5.55939 36.1122 4.51172 37.1599 4.51172 38.4547C4.51172 39.7496 5.55939 40.7973 6.85427 40.7973H42.1574C43.4523 40.7973 44.5 39.7496 44.5 38.4547C44.5 37.1599 43.4523 36.1122 42.1574 36.1122H42.1456ZM22.9343 17.3717C22.9343 16.5124 23.6406 15.8061 24.4999 15.8061C25.3593 15.8061 26.0656 16.5124 26.0656 17.3717C26.0656 18.2311 25.3593 18.9374 24.4999 18.9374C23.6406 18.9374 22.9343 18.2311 22.9343 17.3717ZM24.4882 20.503C33.0932 20.503 40.58 27.46 40.58 36.1239H8.40813C8.40813 27.6601 15.7772 20.503 24.4999 20.503H24.4882ZM42.1456 39.2434H6.8425C6.40695 39.2434 6.06557 38.8903 6.06557 38.4665C6.06557 38.0427 6.41872 37.6896 6.8425 37.6896H42.1456C42.5812 37.6896 42.9226 38.0427 42.9226 38.4665C42.9226 38.8903 42.5694 39.2434 42.1456 39.2434Z" fill="#906447"/>
<path d="M37.7666 30.3323C36.2951 27.0951 33.1521 24.3288 29.3381 22.9279C28.9378 22.7749 28.4788 22.9868 28.3375 23.387C28.1845 23.7873 28.3964 24.2464 28.7966 24.3876C32.175 25.6354 35.0709 28.1546 36.3422 30.968C36.5188 31.3564 36.9779 31.533 37.3781 31.3564C37.7666 31.1799 37.9431 30.7208 37.7666 30.3205V30.3323Z" fill="#906447"/>
<path d="M44.0527 17.3011L42.2045 16.3712L41.2746 14.523C41.1451 14.264 40.8743 14.0875 40.5801 14.0875C40.2858 14.0875 40.015 14.2523 39.8855 14.523L38.9556 16.3712L37.1074 17.3011C36.8485 17.4306 36.6719 17.7014 36.6719 17.9956C36.6719 18.2899 36.8367 18.5607 37.1074 18.6902L38.9556 19.6201L39.8855 21.4683C40.015 21.7273 40.2858 21.9038 40.5801 21.9038C40.8743 21.9038 41.1451 21.739 41.2746 21.4683L42.2045 19.6201L44.0527 18.6902C44.3117 18.5607 44.4882 18.2899 44.4882 17.9956C44.4882 17.7014 44.3234 17.4306 44.0527 17.3011ZM41.2746 18.337C41.1216 18.4077 41.0038 18.5371 40.9214 18.6902L40.5801 19.3729L40.2387 18.6902C40.1681 18.5371 40.0386 18.4194 39.8855 18.337L39.2028 17.9956L39.8855 17.6543C40.0386 17.5836 40.1563 17.4541 40.2387 17.3011L40.5801 16.6184L40.9214 17.3011C40.9921 17.4541 41.1216 17.5719 41.2746 17.6543L41.9573 17.9956L41.2746 18.337Z" fill="#906447"/>
<path d="M8.17275 15.2529L9.22042 18.3959C9.32637 18.7137 9.62066 18.9256 9.96204 18.9256C10.3034 18.9256 10.5977 18.7137 10.7036 18.3959L11.7513 15.2529L14.8944 14.2052C15.2122 14.0992 15.4241 13.8049 15.4241 13.4636C15.4241 13.1222 15.2122 12.8279 14.8944 12.722L11.7513 11.6743L10.7036 8.53125C10.5977 8.21342 10.3034 8.00153 9.96204 8.00153C9.62066 8.00153 9.32637 8.21342 9.22042 8.53125L8.17275 11.6743L5.02972 12.722C4.71189 12.8279 4.5 13.1222 4.5 13.4636C4.5 13.8049 4.71189 14.0992 5.02972 14.2052L8.17275 15.2529ZM9.04385 13.0398C9.27928 12.9574 9.45586 12.7808 9.53826 12.5454L9.97381 11.2505L10.4094 12.5454C10.4918 12.7808 10.6683 12.9574 10.9038 13.0398L12.1986 13.4753L10.9038 13.9109C10.6683 13.9933 10.4918 14.1699 10.4094 14.4053L9.97381 15.7002L9.53826 14.4053C9.45586 14.1699 9.27928 13.9933 9.04385 13.9109L7.74897 13.4753L9.04385 13.0398Z" fill="#906447"/>
</svg>
