<svg width="49" height="49" viewBox="0 0 49 49" fill="none" xmlns="http://www.w3.org/2000/svg">
<path d="M29.3495 20.9561C28.0296 20.9561 26.767 21.2143 25.5618 21.7165C25.1601 21.8886 24.9736 22.3334 25.1458 22.7351C25.3179 23.1368 25.7627 23.3233 26.1644 23.1512C27.1687 22.7351 28.2448 22.5199 29.3495 22.5199C33.9119 22.5199 37.6278 26.2358 37.6278 30.7982C37.6278 35.3606 33.9119 39.0766 29.3495 39.0766C24.7871 39.0766 21.0712 35.3606 21.0712 30.7982C21.0712 29.6935 21.2864 28.6175 21.7024 27.6132C21.8746 27.2114 21.6738 26.7523 21.2864 26.5945C20.8847 26.4223 20.4255 26.6232 20.2677 27.0106C19.7656 28.2157 19.5073 29.4926 19.5073 30.7982C19.5073 36.2215 23.9263 40.6404 29.3495 40.6404C34.7727 40.6404 39.1917 36.2215 39.1917 30.7982C39.1917 25.375 34.7727 20.9561 29.3495 20.9561Z" fill="#906447"/>
<path d="M29.3492 37.1972C32.8786 37.1972 35.7624 34.3277 35.7624 30.784C35.7624 27.2402 32.893 24.3708 29.3492 24.3708C25.8055 24.3708 22.936 27.2402 22.936 30.784C22.936 34.3277 25.8055 37.1972 29.3492 37.1972ZM29.3492 25.949C32.0178 25.949 34.1986 28.1154 34.1986 30.7983C34.1986 33.4812 32.0322 35.6477 29.3492 35.6477C26.6663 35.6477 24.4999 33.4812 24.4999 30.7983C24.4999 28.1154 26.6663 25.949 29.3492 25.949Z" fill="#906447"/>
<path d="M40.5402 17.1971H38.1585L35.4326 12.5773C35.2891 12.3334 35.0308 12.1899 34.7582 12.1899H23.9261C23.6535 12.1899 23.3953 12.3334 23.2518 12.5773L20.5258 17.1971H16.0638V16.2645C16.0638 14.715 14.8013 13.4525 13.2518 13.4525C11.7023 13.4525 10.4397 14.715 10.4397 16.2645V17.1971H8.45983C6.27905 17.1971 4.5 18.9761 4.5 21.1569V40.4252C4.5 42.606 6.27905 44.385 8.45983 44.385H40.5402C42.7209 44.385 44.5 42.606 44.5 40.4252V21.1569C44.5 18.9761 42.7209 17.1971 40.5402 17.1971ZM24.3709 13.7681H34.3135L36.3508 17.2114H22.3479L24.3852 13.7681H24.3709ZM12.0036 16.2645C12.0036 15.5759 12.5631 15.0163 13.2518 15.0163C13.9405 15.0163 14.5 15.5759 14.5 16.2645V17.1971H12.0036V16.2645ZM42.9362 40.4252C42.9362 41.7451 41.8601 42.8212 40.5402 42.8212H8.45983C7.13988 42.8212 6.06385 41.7451 6.06385 40.4252V21.1569C6.06385 19.837 7.13988 18.7609 8.45983 18.7609H40.5402C41.8601 18.7609 42.9362 19.837 42.9362 21.1569V40.4252Z" fill="#906447"/>
<path d="M29.3492 29.2774C30.1956 29.2774 30.87 29.9661 30.87 30.7982C30.87 31.2287 31.2143 31.573 31.6447 31.573C32.0751 31.573 32.4195 31.2287 32.4195 30.7982C32.4195 29.0909 31.0421 27.7136 29.3348 27.7136C28.9044 27.7136 28.5601 28.0579 28.5601 28.4883C28.5601 28.9188 28.9044 29.2631 29.3348 29.2631L29.3492 29.2774Z" fill="#906447"/>
<path d="M29.3495 10.1526C29.7799 10.1526 30.1242 9.80831 30.1242 9.37789V5.18851C30.1242 4.75809 29.7799 4.41376 29.3495 4.41376C28.919 4.41376 28.5747 4.75809 28.5747 5.18851V9.36354C28.5747 9.79396 28.919 10.1383 29.3495 10.1383V10.1526Z" fill="#906447"/>
<path d="M33.0656 10.1527C33.2665 10.1527 33.4673 10.0809 33.6251 9.92311L36.4946 7.05366C36.7959 6.75237 36.7959 6.25022 36.4946 5.94893C36.1933 5.64764 35.6911 5.64764 35.3898 5.94893L32.5204 8.81837C32.2191 9.11966 32.2191 9.62181 32.5204 9.92311C32.6782 10.0809 32.8791 10.1527 33.0799 10.1527H33.0656Z" fill="#906447"/>
<path d="M25.0737 9.92311C25.2316 10.0809 25.4324 10.1527 25.6333 10.1527C25.8341 10.1527 26.035 10.0809 26.1928 9.92311C26.4941 9.62181 26.4941 9.11966 26.1928 8.81837L23.3234 5.94893C23.0221 5.64764 22.5199 5.64764 22.2186 5.94893C21.9174 6.25022 21.9174 6.75237 22.2186 7.05366L25.0881 9.92311H25.0737Z" fill="#906447"/>
<path d="M15.2891 23.6103H11.2289C10.7984 23.6103 10.4541 23.9547 10.4541 24.3851C10.4541 24.8155 10.7984 25.1598 11.2289 25.1598H15.2891C15.7195 25.1598 16.0639 24.8155 16.0639 24.3851C16.0639 23.9547 15.7195 23.6103 15.2891 23.6103Z" fill="#906447"/>
<path d="M22.9366 25.1741C23.1374 25.1741 23.3383 25.0881 23.4961 24.9446C23.6396 24.8011 23.7257 24.6003 23.7257 24.385C23.7257 24.1698 23.6396 23.9833 23.4961 23.8255C23.3526 23.682 23.1518 23.5959 22.9366 23.5959C22.7213 23.5959 22.5348 23.682 22.377 23.8255C22.2335 23.969 22.1475 24.1698 22.1475 24.385C22.1475 24.6003 22.2335 24.7868 22.377 24.9446C22.5205 25.0881 22.7213 25.1741 22.9366 25.1741Z" fill="#906447"/>
</svg>
