<svg width="21" height="21" viewBox="0 0 21 21" fill="none" xmlns="http://www.w3.org/2000/svg">
<mask id="mask0_12_127" style="mask-type:alpha" maskUnits="userSpaceOnUse" x="0" y="0" width="21" height="21">
<rect x="0.5" y="0.399414" width="20" height="20" fill="#D9D9D9"/>
</mask>
<g mask="url(#mask0_12_127)">
<path d="M10.5 16.6607C12.1302 15.2013 13.3778 13.8014 14.2427 12.4611C15.1075 11.1208 15.54 9.94695 15.54 8.93945C15.54 7.42029 15.0573 6.1714 14.092 5.19279C13.1268 4.21418 11.9294 3.72487 10.5 3.72487C9.07052 3.72487 7.87316 4.21418 6.90788 5.19279C5.9426 6.1714 5.45996 7.42029 5.45996 8.93945C5.45996 9.94695 5.89239 11.1208 6.75725 12.4611C7.62211 13.8014 8.86968 15.2013 10.5 16.6607ZM10.5 17.8497C10.3376 17.8497 10.1752 17.8217 10.0129 17.7657C9.85038 17.7096 9.70343 17.6228 9.57204 17.5053C8.82427 16.8161 8.12448 16.1064 7.47267 15.3761C6.821 14.646 6.25454 13.9161 5.77329 13.1863C5.29191 12.4566 4.911 11.7333 4.63059 11.0165C4.35017 10.2996 4.20996 9.60723 4.20996 8.93945C4.20996 7.0164 4.83197 5.45952 6.076 4.26883C7.32017 3.07813 8.79482 2.48279 10.5 2.48279C12.2051 2.48279 13.6798 3.07813 14.9239 4.26883C16.1679 5.45952 16.79 7.0164 16.79 8.93945C16.79 9.60723 16.6498 10.2982 16.3693 11.0124C16.0889 11.7267 15.7094 12.45 15.2308 13.1824C14.752 13.9147 14.1868 14.6447 13.5352 15.3722C12.8835 16.0998 12.1837 16.8081 11.4358 17.4972C11.3063 17.6147 11.1592 17.7028 10.9943 17.7615C10.8296 17.8203 10.6648 17.8497 10.5 17.8497ZM10.5014 10.2872C10.916 10.2872 11.2704 10.1395 11.5648 9.84425C11.8592 9.54897 12.0064 9.19404 12.0064 8.77945C12.0064 8.36487 11.8588 8.01036 11.5635 7.71591C11.2682 7.42161 10.9132 7.27446 10.4985 7.27446C10.0839 7.27446 9.72948 7.42209 9.43517 7.71737C9.14073 8.01265 8.9935 8.36765 8.9935 8.78237C8.9935 9.19696 9.14114 9.5514 9.43642 9.84571C9.7317 10.14 10.0867 10.2872 10.5014 10.2872Z" fill="#906447"/>
</g>
</svg>
