<svg width="143" height="77" viewBox="0 0 143 77" fill="none" xmlns="http://www.w3.org/2000/svg">
<path d="M41.3574 26.0225H40.2637V25.1338C40.2637 20.4626 39.3408 17.3978 37.4951 15.9395C35.6494 14.4583 32.9948 13.7178 29.5312 13.7178C28.4147 13.7178 27.5033 13.7292 26.7969 13.752C26.0905 13.752 25.3044 13.7633 24.4385 13.7861V56.2715H31.6504V57.3994H10.6982V56.2715H17.9102V13.7861H16.7139C12.1338 13.7861 8.90951 13.9798 7.04102 14.3672C5.19531 14.7546 3.90788 15.723 3.17871 17.2725C2.44954 18.8219 2.08496 21.4424 2.08496 25.1338V26.0225H0.991211L1.40137 12.5898H40.9473L41.3574 26.0225Z" fill="#906447"/>
<path d="M64.78 28.2394L75.22 48.1594C77.56 44.2594 78.22 40.4194 78.22 36.5794C78.22 28.8394 76.9 27.9394 72.46 27.9394V27.0994H83.86V27.9394C79.66 27.9394 79.06 30.1594 79.06 35.3794C79.06 41.9194 77.8 45.3394 75.64 49.0594C77.74 52.8394 79.06 55.2394 81.16 55.2394C83.68 55.2394 84.1 52.0594 84.1 49.5394H84.94C84.94 56.1994 81.1 58.2394 77.98 58.2394C74.62 58.2394 73.48 56.7994 71.62 53.7394C69.7 55.5994 65.86 58.2394 60.94 58.2394C50.8 58.2394 47.5 49.2994 47.5 44.9194C47.5 36.5194 54.04 32.7994 59.14 29.8594C58.3 28.1194 57.16 25.7794 57.16 22.4794C57.16 17.0794 61.3 13.7794 65.32 13.7794C68.38 13.7794 70.78 15.6394 70.78 19.7194C70.78 24.4594 67.42 26.7994 64.78 28.2394ZM71.2 52.9594L59.5 30.5194C55.36 32.6794 52.66 35.2594 52.66 39.8794C52.66 47.1394 58.3 56.6194 63.58 56.6194C66.46 56.6194 68.98 54.9994 71.2 52.9594ZM61.66 19.4794C61.66 21.5794 63.04 24.6394 64.48 27.5194C67.24 25.9594 69.94 24.0994 69.94 19.7794C69.94 17.0794 68.74 14.6194 65.56 14.6194C63.46 14.6194 61.66 16.6594 61.66 19.4794Z" fill="#906447"/>
<path d="M141.44 57.3994H121.855V56.2715H128.418V35.0801H103.877V56.2715H110.371V57.3994H90.8545V56.2715H97.3486V13.7861H90.8545V12.5898H110.371V13.7861H103.877V33.8838H128.418V13.7861H121.855V12.5898H141.44V13.7861H134.946V56.2715H141.44V57.3994Z" fill="#906447"/>
</svg>
